<svg width="25" height="25" viewBox="0 0 25 25" fill="none" xmlns="http://www.w3.org/2000/svg">
<path fill-rule="evenodd" clip-rule="evenodd" d="M12.5 2.5C9.84784 2.5 7.3043 3.55357 5.42893 5.42893C3.55357 7.30429 2.5 9.84783 2.5 12.5C2.5 15.1522 3.55357 17.6957 5.42893 19.5711C7.3043 21.4464 9.84783 22.5 12.5 22.5C15.1522 22.5 17.6957 21.4464 19.5711 19.5711C21.4464 17.6957 22.5 15.1522 22.5 12.5C22.5 9.84783 21.4464 7.3043 19.5711 5.42893C17.6957 3.55357 15.1522 2.5 12.5 2.5ZM11.6163 15.3662C11.3886 15.602 11.2626 15.9178 11.2654 16.2455C11.2683 16.5732 11.3997 16.8868 11.6315 17.1185C11.8632 17.3503 12.1768 17.4817 12.5045 17.4846C12.8322 17.4874 13.148 17.3614 13.3838 17.1337L17.1338 13.3837C17.3681 13.1493 17.4997 12.8315 17.4997 12.5C17.4997 12.1685 17.3681 11.8507 17.1338 11.6162L13.3838 7.86625C13.148 7.63855 12.8322 7.51256 12.5045 7.51541C12.1768 7.51826 11.8632 7.64972 11.6315 7.88148C11.3997 8.11324 11.2683 8.42675 11.2654 8.7545C11.2626 9.08224 11.3886 9.398 11.6163 9.63375L13.2325 11.25L8.75 11.25C8.41848 11.25 8.10054 11.3817 7.86612 11.6161C7.6317 11.8505 7.5 12.1685 7.5 12.5C7.5 12.8315 7.6317 13.1495 7.86612 13.3839C8.10054 13.6183 8.41848 13.75 8.75 13.75L13.2325 13.75L11.6163 15.3662Z" fill="#FF0000"/>
</svg>
