<svg width="25" height="25" viewBox="0 0 25 25" fill="none" xmlns="http://www.w3.org/2000/svg">
<path fill-rule="evenodd" clip-rule="evenodd" d="M12.5 22.5C15.1522 22.5 17.6957 21.4464 19.5711 19.5711C21.4464 17.6957 22.5 15.1522 22.5 12.5C22.5 9.84784 21.4464 7.3043 19.5711 5.42893C17.6957 3.55357 15.1522 2.5 12.5 2.5C9.84784 2.5 7.3043 3.55357 5.42893 5.42893C3.55357 7.3043 2.5 9.84784 2.5 12.5C2.5 15.1522 3.55357 17.6957 5.42893 19.5711C7.3043 21.4464 9.84784 22.5 12.5 22.5ZM13.3837 9.63375C13.6114 9.398 13.7374 9.08224 13.7346 8.7545C13.7317 8.42675 13.6003 8.11324 13.3685 7.88148C13.1368 7.64972 12.8232 7.51826 12.4955 7.51541C12.1678 7.51256 11.852 7.63855 11.6163 7.86625L7.86625 11.6163C7.63191 11.8507 7.50027 12.1685 7.50027 12.5C7.50027 12.8315 7.63191 13.1493 7.86625 13.3837L11.6163 17.1337C11.852 17.3614 12.1678 17.4874 12.4955 17.4846C12.8232 17.4817 13.1368 17.3503 13.3685 17.1185C13.6003 16.8868 13.7317 16.5732 13.7346 16.2455C13.7374 15.9178 13.6114 15.602 13.3837 15.3663L11.7675 13.75H16.25C16.5815 13.75 16.8995 13.6183 17.1339 13.3839C17.3683 13.1495 17.5 12.8315 17.5 12.5C17.5 12.1685 17.3683 11.8505 17.1339 11.6161C16.8995 11.3817 16.5815 11.25 16.25 11.25H11.7675L13.3837 9.63375Z" fill="#00FF19"/>
</svg>
