<svg width="24" height="25" viewBox="0 0 24 25" fill="none" xmlns="http://www.w3.org/2000/svg">
<path d="M3.58579 8.08579C3.21071 8.46086 3 8.96957 3 9.5V18.5C3 19.0304 3.21071 19.5391 3.58579 19.9142C3.96086 20.2893 4.46957 20.5 5 20.5H19C19.5304 20.5 20.0391 20.2893 20.4142 19.9142C20.7893 19.5391 21 19.0304 21 18.5V9.5C21 8.96957 20.7893 8.46086 20.4142 8.08579C20.0391 7.71071 19.5304 7.5 19 7.5H18.07C17.7408 7.50005 17.4167 7.41884 17.1264 7.26359C16.8362 7.10834 16.5887 6.88383 16.406 6.61L15.594 5.39C15.4113 5.11617 15.1638 4.89166 14.8736 4.73641C14.5833 4.58116 14.2592 4.49995 13.93 4.5H10.07C9.74082 4.49995 9.41671 4.58116 9.12643 4.73641C8.83616 4.89166 8.5887 5.11617 8.406 5.39L7.594 6.61C7.4113 6.88383 7.16384 7.10834 6.87357 7.26359C6.58329 7.41884 6.25918 7.50005 5.93 7.5H5C4.46957 7.5 3.96086 7.71071 3.58579 8.08579Z" stroke="#17171A" stroke-width="2" stroke-linecap="round" stroke-linejoin="round"/>
<path d="M14.1213 15.6213C14.6839 15.0587 15 14.2956 15 13.5C15 12.7044 14.6839 11.9413 14.1213 11.3787C13.5587 10.8161 12.7956 10.5 12 10.5C11.2044 10.5 10.4413 10.8161 9.87868 11.3787C9.31607 11.9413 9 12.7044 9 13.5C9 14.2956 9.31607 15.0587 9.87868 15.6213C10.4413 16.1839 11.2044 16.5 12 16.5C12.7956 16.5 13.5587 16.1839 14.1213 15.6213Z" stroke="#17171A" stroke-width="2" stroke-linecap="round" stroke-linejoin="round"/>
</svg>
