<svg width="21" height="20" viewBox="0 0 21 20" fill="none" xmlns="http://www.w3.org/2000/svg">
<path fill-rule="evenodd" clip-rule="evenodd" d="M10.5 18C12.6217 18 14.6566 17.1571 16.1569 15.6569C17.6571 14.1566 18.5 12.1217 18.5 10C18.5 7.87827 17.6571 5.84344 16.1569 4.34315C14.6566 2.84285 12.6217 2 10.5 2C8.37827 2 6.34344 2.84285 4.84315 4.34315C3.34285 5.84344 2.5 7.87827 2.5 10C2.5 12.1217 3.34285 14.1566 4.84315 15.6569C6.34344 17.1571 8.37827 18 10.5 18ZM9.207 7.293C9.0184 7.11084 8.7658 7.01005 8.5036 7.01233C8.2414 7.0146 7.99059 7.11977 7.80518 7.30518C7.61977 7.49059 7.5146 7.7414 7.51233 8.0036C7.51005 8.2658 7.61084 8.5184 7.793 8.707L9.086 10L7.793 11.293C7.69749 11.3852 7.62131 11.4956 7.5689 11.6176C7.51649 11.7396 7.4889 11.8708 7.48775 12.0036C7.4866 12.1364 7.5119 12.2681 7.56218 12.391C7.61246 12.5139 7.68671 12.6255 7.7806 12.7194C7.8745 12.8133 7.98615 12.8875 8.10905 12.9378C8.23194 12.9881 8.36362 13.0134 8.4964 13.0123C8.62918 13.0111 8.7604 12.9835 8.8824 12.9311C9.00441 12.8787 9.11475 12.8025 9.207 12.707L10.5 11.414L11.793 12.707C11.9816 12.8892 12.2342 12.99 12.4964 12.9877C12.7586 12.9854 13.0094 12.8802 13.1948 12.6948C13.3802 12.5094 13.4854 12.2586 13.4877 11.9964C13.49 11.7342 13.3892 11.4816 13.207 11.293L11.914 10L13.207 8.707C13.3892 8.5184 13.49 8.2658 13.4877 8.0036C13.4854 7.7414 13.3802 7.49059 13.1948 7.30518C13.0094 7.11977 12.7586 7.0146 12.4964 7.01233C12.2342 7.01005 11.9816 7.11084 11.793 7.293L10.5 8.586L9.207 7.293Z" fill="#DFE0EA"/>
</svg>
