<svg width="25" height="25" viewBox="0 0 25 25" fill="none" xmlns="http://www.w3.org/2000/svg">
<path fill-rule="evenodd" clip-rule="evenodd" d="M12.5 22.5C15.1522 22.5 17.6957 21.4464 19.5711 19.5711C21.4464 17.6957 22.5 15.1522 22.5 12.5C22.5 9.84784 21.4464 7.3043 19.5711 5.42893C17.6957 3.55357 15.1522 2.5 12.5 2.5C9.84784 2.5 7.3043 3.55357 5.42893 5.42893C3.55357 7.3043 2.5 9.84784 2.5 12.5C2.5 15.1522 3.55357 17.6957 5.42893 19.5711C7.3043 21.4464 9.84784 22.5 12.5 22.5ZM10.8837 9.11625C10.648 8.88855 10.3322 8.76256 10.0045 8.76541C9.67675 8.76826 9.36324 8.89972 9.13148 9.13148C8.89972 9.36324 8.76826 9.67675 8.76541 10.0045C8.76256 10.3322 8.88855 10.648 9.11625 10.8837L10.7325 12.5L9.11625 14.1163C8.99686 14.2316 8.90163 14.3695 8.83612 14.522C8.77061 14.6745 8.73613 14.8385 8.73469 15.0045C8.73324 15.1705 8.76487 15.3351 8.82772 15.4887C8.89057 15.6423 8.98339 15.7819 9.10076 15.8992C9.21812 16.0166 9.35769 16.1094 9.51131 16.1723C9.66493 16.2351 9.82953 16.2668 9.9955 16.2653C10.1615 16.2639 10.3255 16.2294 10.478 16.1639C10.6305 16.0984 10.7684 16.0031 10.8837 15.8837L12.5 14.2675L14.1163 15.8837C14.352 16.1114 14.6678 16.2374 14.9955 16.2346C15.3232 16.2317 15.6368 16.1003 15.8685 15.8685C16.1003 15.6368 16.2317 15.3232 16.2346 14.9955C16.2374 14.6678 16.1114 14.352 15.8837 14.1163L14.2675 12.5L15.8837 10.8837C16.1114 10.648 16.2374 10.3322 16.2346 10.0045C16.2317 9.67675 16.1003 9.36324 15.8685 9.13148C15.6368 8.89972 15.3232 8.76826 14.9955 8.76541C14.6678 8.76256 14.352 8.88855 14.1163 9.11625L12.5 10.7325L10.8837 9.11625Z" fill="#17171A"/>
</svg>
