<svg width="21" height="19" viewBox="0 0 21 19" fill="none" xmlns="http://www.w3.org/2000/svg">
<path d="M9.5 13.5L5.5 9.5M5.5 9.5L9.5 5.5M5.5 9.5H19.5M14.5 13.5V14.5C14.5 15.2956 14.1839 16.0587 13.6213 16.6213C13.0587 17.1839 12.2956 17.5 11.5 17.5H4.5C3.70435 17.5 2.94129 17.1839 2.37868 16.6213C1.81607 16.0587 1.5 15.2956 1.5 14.5V4.5C1.5 3.70435 1.81607 2.94129 2.37868 2.37868C2.94129 1.81607 3.70435 1.5 4.5 1.5H11.5C12.2956 1.5 13.0587 1.81607 13.6213 2.37868C14.1839 2.94129 14.5 3.70435 14.5 4.5V5.5" stroke="#DFE0EA" stroke-width="2" stroke-linecap="round" stroke-linejoin="round"/>
</svg>
