<svg width="51" height="51" viewBox="0 0 51 51" fill="none" xmlns="http://www.w3.org/2000/svg">
<path fill-rule="evenodd" clip-rule="evenodd" d="M24.26 3.32999C24.6377 3.11426 25.0651 3.00079 25.5 3.00079C25.9349 3.00079 26.3624 3.11426 26.74 3.32999L31.115 5.82999C31.4082 5.98845 31.6668 6.20394 31.8755 6.46378C32.0842 6.72362 32.2388 7.02257 32.3303 7.34305C32.4218 7.66353 32.4483 7.99907 32.4082 8.32994C32.3682 8.6608 32.2623 8.98032 32.097 9.26969C31.9316 9.55906 31.7101 9.81245 31.4454 10.0149C31.1807 10.2175 30.8781 10.365 30.5556 10.4489C30.233 10.5327 29.897 10.5513 29.5671 10.5034C29.2373 10.4555 28.9204 10.3421 28.635 10.17L25.5 8.37999L22.365 10.17C22.0796 10.3421 21.7627 10.4555 21.4329 10.5034C21.1031 10.5513 20.767 10.5327 20.4444 10.4489C20.1219 10.365 19.8194 10.2175 19.5546 10.0149C19.2899 9.81245 19.0684 9.55906 18.903 9.26969C18.7377 8.98032 18.6319 8.6608 18.5918 8.32994C18.5517 7.99907 18.5782 7.66353 18.6697 7.34305C18.7612 7.02257 18.9158 6.72362 19.1245 6.46378C19.3333 6.20394 19.5918 5.98845 19.885 5.82999L24.26 3.32999ZM14.545 11.76C14.8737 12.3356 14.9604 13.0181 14.786 13.6575C14.6116 14.297 14.1904 14.841 13.615 15.17L13.04 15.5L13.615 15.83C13.9082 15.9884 14.1668 16.2039 14.3755 16.4638C14.5842 16.7236 14.7388 17.0226 14.8303 17.3431C14.9218 17.6635 14.9483 17.9991 14.9082 18.3299C14.8682 18.6608 14.7623 18.9803 14.597 19.2697C14.4316 19.5591 14.2101 19.8124 13.9454 20.0149C13.6807 20.2175 13.3781 20.365 13.0556 20.4489C12.733 20.5327 12.397 20.5513 12.0671 20.5034C11.7373 20.4555 11.4204 20.3421 11.135 20.17L10.5 19.8075V20.5C10.5 21.163 10.2366 21.7989 9.76778 22.2678C9.29894 22.7366 8.66305 23 8.00001 23C7.33697 23 6.70109 22.7366 6.23224 22.2678C5.7634 21.7989 5.50001 21.163 5.50001 20.5V15.5C5.49861 15.0509 5.6187 14.6098 5.84756 14.2234C6.07641 13.8369 6.40552 13.5196 6.80001 13.305L11.135 10.83C11.7106 10.5013 12.3931 10.4146 13.0325 10.589C13.672 10.7634 14.216 11.1846 14.545 11.76ZM36.455 11.76C36.784 11.1846 37.328 10.7634 37.9675 10.589C38.6069 10.4146 39.2895 10.5013 39.865 10.83L44.1975 13.305C44.5914 13.5205 44.9201 13.838 45.1493 14.2242C45.3784 14.6103 45.4996 15.051 45.5 15.5V20.5C45.5 21.163 45.2366 21.7989 44.7678 22.2678C44.2989 22.7366 43.6631 23 43 23C42.337 23 41.7011 22.7366 41.2322 22.2678C40.7634 21.7989 40.5 21.163 40.5 20.5V19.8075L39.865 20.17C39.5796 20.3421 39.2627 20.4555 38.9329 20.5034C38.6031 20.5513 38.267 20.5327 37.9444 20.4489C37.6219 20.365 37.3194 20.2175 37.0546 20.0149C36.7899 19.8124 36.5684 19.5591 36.403 19.2697C36.2377 18.9803 36.1319 18.6608 36.0918 18.3299C36.0517 17.9991 36.0782 17.6635 36.1697 17.3431C36.2612 17.0226 36.4158 16.7236 36.6245 16.4638C36.8333 16.2039 37.0918 15.9884 37.385 15.83L37.96 15.5L37.385 15.17C36.8096 14.841 36.3885 14.297 36.2141 13.6575C36.0397 13.0181 36.1263 12.3356 36.455 11.76ZM18.955 21.76C19.284 21.1846 19.828 20.7634 20.4675 20.589C21.1069 20.4146 21.7894 20.5013 22.365 20.83L25.5 22.62L28.635 20.83C28.9204 20.6578 29.2373 20.5445 29.5671 20.4966C29.897 20.4487 30.233 20.4672 30.5556 20.5511C30.8781 20.635 31.1807 20.7825 31.4454 20.985C31.7101 21.1875 31.9316 21.4409 32.097 21.7303C32.2623 22.0197 32.3682 22.3392 32.4082 22.67C32.4483 23.0009 32.4218 23.3364 32.3303 23.6569C32.2388 23.9774 32.0842 24.2764 31.8755 24.5362C31.6668 24.796 31.4082 25.0115 31.115 25.17L28 26.95V30.5C28 31.163 27.7366 31.7989 27.2678 32.2678C26.7989 32.7366 26.1631 33 25.5 33C24.837 33 24.2011 32.7366 23.7322 32.2678C23.2634 31.7989 23 31.163 23 30.5V26.95L19.885 25.17C19.3096 24.841 18.8885 24.297 18.7141 23.6575C18.5397 23.0181 18.6263 22.3355 18.955 21.76ZM8.00001 28C8.66305 28 9.29894 28.2634 9.76778 28.7322C10.2366 29.2011 10.5 29.8369 10.5 30.5V34.05L13.615 35.83C13.9082 35.9884 14.1668 36.2039 14.3755 36.4638C14.5842 36.7236 14.7388 37.0226 14.8303 37.3431C14.9218 37.6635 14.9483 37.9991 14.9082 38.3299C14.8682 38.6608 14.7623 38.9803 14.597 39.2697C14.4316 39.5591 14.2101 39.8124 13.9454 40.0149C13.6807 40.2175 13.3781 40.365 13.0556 40.4489C12.733 40.5327 12.397 40.5513 12.0671 40.5034C11.7373 40.4555 11.4204 40.3421 11.135 40.17L6.76001 37.67C6.37738 37.4514 6.05931 37.1356 5.83804 36.7545C5.61677 36.3734 5.50015 35.9406 5.50001 35.5V30.5C5.50001 29.8369 5.7634 29.2011 6.23224 28.7322C6.70109 28.2634 7.33697 28 8.00001 28ZM43 28C43.6631 28 44.2989 28.2634 44.7678 28.7322C45.2366 29.2011 45.5 29.8369 45.5 30.5V35.5C45.4999 35.9406 45.3833 36.3734 45.162 36.7545C44.9407 37.1356 44.6226 37.4514 44.24 37.67L39.865 40.17C39.5796 40.3421 39.2627 40.4555 38.9329 40.5034C38.6031 40.5513 38.267 40.5327 37.9444 40.4489C37.6219 40.365 37.3194 40.2175 37.0546 40.0149C36.7899 39.8124 36.5684 39.5591 36.403 39.2697C36.2377 38.9803 36.1319 38.6608 36.0918 38.3299C36.0517 37.9991 36.0782 37.6635 36.1697 37.3431C36.2612 37.0226 36.4158 36.7236 36.6245 36.4638C36.8333 36.2039 37.0918 35.9884 37.385 35.83L40.5 34.05V30.5C40.5 29.8369 40.7634 29.2011 41.2322 28.7322C41.7011 28.2634 42.337 28 43 28ZM18.955 41.76C19.284 41.1846 19.828 40.7634 20.4675 40.589C21.1069 40.4146 21.7894 40.5013 22.365 40.83L23 41.1925V40.5C23 39.8369 23.2634 39.2011 23.7322 38.7322C24.2011 38.2634 24.837 38 25.5 38C26.1631 38 26.7989 38.2634 27.2678 38.7322C27.7366 39.2011 28 39.8369 28 40.5V41.1925L28.635 40.83C28.9204 40.6578 29.2373 40.5445 29.5671 40.4966C29.897 40.4487 30.233 40.4672 30.5556 40.5511C30.8781 40.635 31.1807 40.7825 31.4454 40.985C31.7101 41.1875 31.9316 41.4409 32.097 41.7303C32.2623 42.0197 32.3682 42.3392 32.4082 42.67C32.4483 43.0009 32.4218 43.3364 32.3303 43.6569C32.2388 43.9774 32.0842 44.2764 31.8755 44.5362C31.6668 44.796 31.4082 45.0115 31.115 45.17L26.7775 47.65C26.3914 47.8811 25.9499 48.0031 25.5 48.0031C25.0501 48.0031 24.6086 47.8811 24.2225 47.65L19.885 45.17C19.3096 44.841 18.8885 44.297 18.7141 43.6575C18.5397 43.0181 18.6263 42.3355 18.955 41.76Z" fill="#FF97CE"/>
</svg>
