<svg width="32" height="36" viewBox="0 0 32 36" fill="none" xmlns="http://www.w3.org/2000/svg">
<path d="M18.1668 33.3135C18.167 33.6863 18.2616 34.0528 18.4414 34.3783C18.6213 34.7038 18.8806 34.9775 19.1947 35.1735C19.5088 35.3694 19.8672 35.481 20.236 35.4978C20.6048 35.5146 20.9717 35.4359 21.302 35.2693L29.9687 30.894C30.3285 30.7124 30.6312 30.4333 30.8428 30.0879C31.0544 29.7425 31.1666 29.3444 31.1668 28.9382V16.3286C31.1666 15.9559 31.0721 15.5894 30.8922 15.2638C30.7123 14.9383 30.453 14.6646 30.139 14.4687C29.8249 14.2728 29.4665 14.1611 29.0976 14.1444C28.7288 14.1276 28.3619 14.2063 28.0317 14.3729L19.365 18.7482C19.0052 18.9297 18.7025 19.2088 18.4909 19.5543C18.2792 19.8997 18.167 20.2978 18.1668 20.7039V33.3135ZM27.2907 9.85321C27.6501 9.67133 27.9523 9.39207 28.1635 9.04668C28.3747 8.70128 28.4865 8.30337 28.4865 7.89745C28.4865 7.49153 28.3747 7.09362 28.1635 6.74823C27.9523 6.40283 27.6501 6.12357 27.2907 5.9417L16.9687 0.730722C16.6679 0.57899 16.3364 0.5 16.0002 0.5C15.664 0.5 15.3324 0.57899 15.0317 0.730722L4.70966 5.9417C4.35025 6.12357 4.04805 6.40283 3.83685 6.74823C3.62566 7.09362 3.51381 7.49153 3.51381 7.89745C3.51381 8.30337 3.62566 8.70128 3.83685 9.04668C4.04805 9.39207 4.35025 9.67133 4.70966 9.85321L15.0317 15.0642C15.3324 15.2159 15.664 15.2949 16.0002 15.2949C16.3364 15.2949 16.6679 15.2159 16.9687 15.0642L27.2907 9.85321ZM3.96866 14.3729C3.63842 14.2063 3.27148 14.1276 2.90268 14.1444C2.53387 14.1611 2.17542 14.2728 1.86135 14.4687C1.54728 14.6646 1.288 14.9383 1.10811 15.2638C0.92822 15.5894 0.833693 15.9559 0.833496 16.3286V28.9382C0.833711 29.3444 0.94591 29.7425 1.15753 30.0879C1.36914 30.4333 1.67182 30.7124 2.03166 30.894L10.6983 35.2693C11.0286 35.4359 11.3955 35.5146 11.7643 35.4978C12.1331 35.481 12.4916 35.3694 12.8056 35.1735C13.1197 34.9775 13.379 34.7038 13.5589 34.3783C13.7388 34.0528 13.8333 33.6863 13.8335 33.3135V20.7039C13.8333 20.2978 13.7211 19.8997 13.5095 19.5543C13.2978 19.2088 12.9952 18.9297 12.6353 18.7482L3.96866 14.3729Z" fill="#DFE0EA"/>
</svg>
