<svg width="28" height="36" viewBox="0 0 28 36" fill="none" xmlns="http://www.w3.org/2000/svg">
<path d="M2.67651 4.6176C2.67651 3.52551 3.11034 2.47815 3.88257 1.70593C4.65479 0.933708 5.70215 0.499878 6.79423 0.499878H16.2362C17.3282 0.500111 18.3753 0.934094 19.1474 1.70637L26.1763 8.73532C26.9486 9.50736 27.3826 10.5545 27.3828 11.6465V29.3239C27.3828 30.416 26.949 31.4634 26.1768 32.2356C25.4046 33.0078 24.3572 33.4416 23.2651 33.4416H20.1192C22.2229 31.0882 23.3459 28.0187 23.2576 24.8633C23.1693 21.7078 21.8764 18.7059 19.6443 16.4738C17.4122 14.2417 14.4103 12.9488 11.2549 12.8605C8.09947 12.7722 5.02995 13.8952 2.67651 15.999V4.6176Z" fill="#DFE0EA"/>
<path fill-rule="evenodd" clip-rule="evenodd" d="M10.9119 16.9711C9.45971 16.9709 8.03329 17.3546 6.77727 18.0835C5.52124 18.8124 4.48028 19.8604 3.75993 21.1214C3.03957 22.3823 2.66545 23.8113 2.67548 25.2634C2.68552 26.7156 3.07936 28.1393 3.81707 29.3901L1.22085 31.9843C1.02956 32.1754 0.877796 32.4024 0.774219 32.6522C0.670643 32.902 0.617283 33.1698 0.617188 33.4402C0.617092 33.7106 0.670262 33.9784 0.773662 34.2283C0.877062 34.4782 1.02867 34.7052 1.21982 34.8965C1.41098 35.0878 1.63793 35.2396 1.88774 35.3432C2.13755 35.4467 2.40531 35.5001 2.67574 35.5002C2.94616 35.5003 3.21396 35.4471 3.46384 35.3437C3.71372 35.2403 3.94079 35.0887 4.13208 34.8976L6.7283 32.3013C7.81918 32.9443 9.04362 33.327 10.3065 33.4198C11.5693 33.5126 12.8366 33.3129 14.0097 32.8363C15.1828 32.3597 16.2302 31.619 17.0706 30.6717C17.9109 29.7245 18.5214 28.5962 18.8548 27.3747C19.1882 26.1531 19.2354 24.8711 18.9927 23.6283C18.75 22.3855 18.2241 21.2154 17.4557 20.209C16.6873 19.2025 15.6971 18.3868 14.5622 17.8252C13.4273 17.2637 12.1782 16.9714 10.9119 16.9711ZM6.79418 25.2065C6.79418 24.1144 7.22801 23.0671 8.00023 22.2948C8.77246 21.5226 9.81981 21.0888 10.9119 21.0888C12.004 21.0888 13.0513 21.5226 13.8236 22.2948C14.5958 23.0671 15.0296 24.1144 15.0296 25.2065C15.0296 26.2986 14.5958 27.346 13.8236 28.1182C13.0513 28.8904 12.004 29.3242 10.9119 29.3242C9.81981 29.3242 8.77246 28.8904 8.00023 28.1182C7.22801 27.346 6.79418 26.2986 6.79418 25.2065Z" fill="#DFE0EA"/>
</svg>
