<svg width="28" height="36" viewBox="0 0 28 36" fill="none" xmlns="http://www.w3.org/2000/svg">
<path d="M9.625 2.6875C9.625 2.10734 9.85547 1.55094 10.2657 1.1407C10.6759 0.730468 11.2323 0.5 11.8125 0.5H16.1875C16.7677 0.5 17.3241 0.730468 17.7343 1.1407C18.1445 1.55094 18.375 2.10734 18.375 2.6875C18.375 3.26766 18.1445 3.82406 17.7343 4.2343C17.3241 4.64453 16.7677 4.875 16.1875 4.875H11.8125C11.2323 4.875 10.6759 4.64453 10.2657 4.2343C9.85547 3.82406 9.625 3.26766 9.625 2.6875Z" fill="#DFE0EA"/>
<path d="M5.25 2.6875C4.08968 2.6875 2.97688 3.14844 2.15641 3.96891C1.33594 4.78938 0.875 5.90218 0.875 7.0625V31.125C0.875 32.2853 1.33594 33.3981 2.15641 34.2186C2.97688 35.0391 4.08968 35.5 5.25 35.5H22.75C23.9103 35.5 25.0231 35.0391 25.8436 34.2186C26.6641 33.3981 27.125 32.2853 27.125 31.125V7.0625C27.125 5.90218 26.6641 4.78938 25.8436 3.96891C25.0231 3.14844 23.9103 2.6875 22.75 2.6875C22.75 4.42798 22.0586 6.09718 20.8279 7.32789C19.5972 8.5586 17.928 9.25 16.1875 9.25H11.8125C10.072 9.25 8.40282 8.5586 7.17211 7.32789C5.9414 6.09718 5.25 4.42798 5.25 2.6875Z" fill="#DFE0EA"/>
</svg>
