<svg width="51" height="51" viewBox="0 0 51 51" fill="none" xmlns="http://www.w3.org/2000/svg">
<path fill-rule="evenodd" clip-rule="evenodd" d="M10.5 10.5C10.5 9.17392 11.0268 7.90215 11.9645 6.96447C12.9021 6.02678 14.1739 5.5 15.5 5.5H26.965C28.291 5.50028 29.5625 6.02725 30.5 6.965L39.035 15.5C39.9727 16.4375 40.4997 17.709 40.5 19.035V40.5C40.5 41.8261 39.9732 43.0979 39.0355 44.0355C38.0979 44.9732 36.8261 45.5 35.5 45.5H15.5C14.1739 45.5 12.9021 44.9732 11.9645 44.0355C11.0268 43.0979 10.5 41.8261 10.5 40.5V10.5ZM15.5 25.5C15.5 24.837 15.7634 24.2011 16.2322 23.7322C16.7011 23.2634 17.337 23 18 23H33C33.663 23 34.2989 23.2634 34.7678 23.7322C35.2366 24.2011 35.5 24.837 35.5 25.5C35.5 26.163 35.2366 26.7989 34.7678 27.2678C34.2989 27.7366 33.663 28 33 28H18C17.337 28 16.7011 27.7366 16.2322 27.2678C15.7634 26.7989 15.5 26.163 15.5 25.5ZM18 33C17.337 33 16.7011 33.2634 16.2322 33.7322C15.7634 34.2011 15.5 34.837 15.5 35.5C15.5 36.163 15.7634 36.7989 16.2322 37.2678C16.7011 37.7366 17.337 38 18 38H33C33.663 38 34.2989 37.7366 34.7678 37.2678C35.2366 36.7989 35.5 36.163 35.5 35.5C35.5 34.837 35.2366 34.2011 34.7678 33.7322C34.2989 33.2634 33.663 33 33 33H18Z" fill="#FF97CE"/>
</svg>
