<svg width="51" height="51" viewBox="0 0 51 51" fill="none" xmlns="http://www.w3.org/2000/svg">
<path fill-rule="evenodd" clip-rule="evenodd" d="M8 8C8 7.33696 8.26339 6.70107 8.73223 6.23223C9.20107 5.76339 9.83696 5.5 10.5 5.5H40.5C41.163 5.5 41.7989 5.76339 42.2678 6.23223C42.7366 6.70107 43 7.33696 43 8V15.5C42.9999 16.163 42.7364 16.7988 42.2675 17.2675L30.5 29.035V38C30.4999 38.663 30.2364 39.2988 29.7675 39.7675L24.7675 44.7675C24.4179 45.117 23.9725 45.355 23.4876 45.4515C23.0027 45.5479 22.5001 45.4984 22.0434 45.3092C21.5866 45.12 21.1962 44.7997 20.9215 44.3886C20.6468 43.9776 20.5001 43.4944 20.5 43V29.035L8.7325 17.2675C8.26363 16.7988 8.00014 16.163 8 15.5V8Z" fill="#FF97CE"/>
</svg>
