<svg width="25" height="25" viewBox="0 0 25 25" fill="none" xmlns="http://www.w3.org/2000/svg">
<path d="M4.5 4.50005V9.50005H5.082M5.082 9.50005C5.74585 7.85818 6.93568 6.48296 8.46503 5.58991C9.99438 4.69686 11.7768 4.33646 13.533 4.56519C15.2891 4.79392 16.9198 5.59884 18.1694 6.85383C19.419 8.10881 20.2168 9.74291 20.438 11.5M5.082 9.50005H9.5M20.5 20.5V15.5H19.919M19.919 15.5C19.2542 17.141 18.064 18.5151 16.5348 19.4073C15.0056 20.2996 13.2237 20.6596 11.4681 20.4309C9.71246 20.2023 8.0822 19.3979 6.83253 18.1438C5.58287 16.8896 4.78435 15.2565 4.562 13.5M19.919 15.5H15.5" stroke="#DFE0EA" stroke-width="2" stroke-linecap="round" stroke-linejoin="round"/>
</svg>
