<svg width="32" height="36" viewBox="0 0 32 36" fill="none" xmlns="http://www.w3.org/2000/svg">
<path d="M18.1666 33.3135C18.1668 33.6863 18.2613 34.0528 18.4412 34.3783C18.6211 34.7038 18.8804 34.9775 19.1944 35.1735C19.5085 35.3694 19.867 35.481 20.2358 35.4978C20.6046 35.5146 20.9715 35.4359 21.3018 35.2693L29.9684 30.894C30.3283 30.7124 30.6309 30.4333 30.8426 30.0879C31.0542 29.7425 31.1664 29.3444 31.1666 28.9382V16.3286C31.1664 15.9559 31.0719 15.5894 30.892 15.2638C30.7121 14.9383 30.4528 14.6646 30.1387 14.4687C29.8247 14.2728 29.4662 14.1611 29.0974 14.1444C28.7286 14.1276 28.3617 14.2063 28.0314 14.3729L19.3648 18.7482C19.0049 18.9297 18.7022 19.2088 18.4906 19.5543C18.279 19.8997 18.1668 20.2978 18.1666 20.7039V33.3135ZM27.2904 9.85321C27.6498 9.67133 27.952 9.39207 28.1632 9.04668C28.3744 8.70128 28.4863 8.30337 28.4863 7.89745C28.4863 7.49153 28.3744 7.09362 28.1632 6.74823C27.952 6.40283 27.6498 6.12357 27.2904 5.9417L16.9684 0.730722C16.6677 0.57899 16.3361 0.5 15.9999 0.5C15.6637 0.5 15.3322 0.57899 15.0314 0.730722L4.70942 5.9417C4.35001 6.12357 4.0478 6.40283 3.83661 6.74823C3.62542 7.09362 3.51356 7.49153 3.51356 7.89745C3.51356 8.30337 3.62542 8.70128 3.83661 9.04668C4.0478 9.39207 4.35001 9.67133 4.70942 9.85321L15.0314 15.0642C15.3322 15.2159 15.6637 15.2949 15.9999 15.2949C16.3361 15.2949 16.6677 15.2159 16.9684 15.0642L27.2904 9.85321ZM3.96842 14.3729C3.63817 14.2063 3.27124 14.1276 2.90243 14.1444C2.53362 14.1611 2.17518 14.2728 1.86111 14.4687C1.54703 14.6646 1.28775 14.9383 1.10786 15.2638C0.927976 15.5894 0.833449 15.9559 0.833252 16.3286V28.9382C0.833467 29.3444 0.945665 29.7425 1.15728 30.0879C1.3689 30.4333 1.67158 30.7124 2.03142 30.894L10.6981 35.2693C11.0283 35.4359 11.3953 35.5146 11.7641 35.4978C12.1329 35.481 12.4913 35.3694 12.8054 35.1735C13.1195 34.9775 13.3788 34.7038 13.5586 34.3783C13.7385 34.0528 13.8331 33.6863 13.8333 33.3135V20.7039C13.833 20.2978 13.7208 19.8997 13.5092 19.5543C13.2976 19.2088 12.9949 18.9297 12.6351 18.7482L3.96842 14.3729Z" fill="#FF97CE"/>
</svg>
