<svg width="28" height="36" viewBox="0 0 28 36" fill="none" xmlns="http://www.w3.org/2000/svg">
<path d="M2.67676 4.61754C2.67676 3.52545 3.11059 2.47809 3.88281 1.70587C4.65503 0.933647 5.70239 0.499817 6.79448 0.499817H16.2364C17.3284 0.50005 18.3756 0.934033 19.1476 1.70631L26.1766 8.73526C26.9489 9.5073 27.3828 10.5545 27.3831 11.6465V29.3239C27.3831 30.4159 26.9492 31.4633 26.177 32.2355C25.4048 33.0077 24.3574 33.4416 23.2654 33.4416H20.1194C22.2232 31.0881 23.3462 28.0186 23.2579 24.8632C23.1696 21.7078 21.8766 18.7059 19.6446 16.4738C17.4125 14.2417 14.4106 12.9488 11.2551 12.8605C8.09971 12.7721 5.0302 13.8951 2.67676 15.9989V4.61754Z" fill="#FF97CE"/>
<path fill-rule="evenodd" clip-rule="evenodd" d="M10.9119 16.971C9.45971 16.9708 8.03329 17.3546 6.77727 18.0835C5.52124 18.8123 4.48028 19.8604 3.75993 21.1213C3.03957 22.3822 2.66545 23.8112 2.67548 25.2634C2.68552 26.7155 3.07936 28.1392 3.81707 29.39L1.22085 31.9842C1.02956 32.1754 0.877796 32.4023 0.774219 32.6521C0.670643 32.9019 0.617283 33.1697 0.617188 33.4401C0.617092 33.7106 0.670262 33.9784 0.773662 34.2282C0.877062 34.4781 1.02867 34.7052 1.21982 34.8965C1.41098 35.0878 1.63793 35.2395 1.88774 35.3431C2.13755 35.4467 2.40531 35.5 2.67574 35.5001C2.94616 35.5002 3.21396 35.4471 3.46384 35.3437C3.71372 35.2403 3.94079 35.0887 4.13208 34.8975L6.7283 32.3013C7.81918 32.9442 9.04362 33.327 10.3065 33.4197C11.5693 33.5125 12.8366 33.3129 14.0097 32.8362C15.1828 32.3596 16.2302 31.6189 17.0706 30.6717C17.9109 29.7244 18.5214 28.5962 18.8548 27.3746C19.1882 26.153 19.2354 24.871 18.9927 23.6282C18.75 22.3854 18.2241 21.2154 17.4557 20.2089C16.6873 19.2024 15.6971 18.3867 14.5622 17.8252C13.4273 17.2636 12.1782 16.9713 10.9119 16.971ZM6.79418 25.2064C6.79418 24.1144 7.22801 23.067 8.00023 22.2948C8.77246 21.5226 9.81981 21.0887 10.9119 21.0887C12.004 21.0887 13.0513 21.5226 13.8236 22.2948C14.5958 23.067 15.0296 24.1144 15.0296 25.2064C15.0296 26.2985 14.5958 27.3459 13.8236 28.1181C13.0513 28.8903 12.004 29.3242 10.9119 29.3242C9.81981 29.3242 8.77246 28.8903 8.00023 28.1181C7.22801 27.3459 6.79418 26.2985 6.79418 25.2064Z" fill="#FF97CE"/>
</svg>
