<svg width="43" height="43" viewBox="0 0 43 43" fill="none" xmlns="http://www.w3.org/2000/svg">
<path d="M39.5254 0H2.96203C2.17645 0 1.42305 0.315835 0.867557 0.878026C0.312068 1.44022 0 2.20271 0 2.99777V40.0022C0 40.7973 0.312068 41.5598 0.867557 42.122C1.42305 42.6842 2.17645 43 2.96203 43H39.5254C40.3109 43 41.0643 42.6842 41.6198 42.122C42.1753 41.5598 42.4874 40.7973 42.4874 40.0022V2.99777C42.4874 2.20271 42.1753 1.44022 41.6198 0.878026C41.0643 0.315835 40.3109 0 39.5254 0ZM38.1776 14.6321C38.1776 15.4272 37.8656 16.1897 37.3101 16.7519C36.7546 17.314 36.0012 17.6299 35.2156 17.6299C34.9257 17.6299 34.6477 17.7464 34.4427 17.9539C34.2378 18.1613 34.1226 18.4427 34.1226 18.7361V24.2819C34.1226 24.5753 34.2378 24.8567 34.4427 25.0641C34.6477 25.2716 34.9257 25.3881 35.2156 25.3881C36.0012 25.3881 36.7546 25.7039 37.3101 26.2661C37.8656 26.8283 38.1776 27.5908 38.1776 28.3859V35.6525C38.1776 36.4475 37.8656 37.21 37.3101 37.7722C36.7546 38.3344 36.0012 38.6502 35.2156 38.6502H28.0149C27.2319 38.6463 26.4823 38.3287 25.93 37.7669C25.3777 37.2052 25.0677 36.4449 25.0677 35.6525C25.0677 35.3591 24.9525 35.0777 24.7475 34.8703C24.5426 34.6628 24.2646 34.5463 23.9747 34.5463H18.5008C18.2107 34.5463 17.9324 34.6627 17.7269 34.8701C17.5215 35.0775 17.4057 35.3588 17.4049 35.6525C17.4049 36.4449 17.0949 37.2052 16.5426 37.7669C15.9903 38.3287 15.2407 38.6463 14.4577 38.6502H7.25698C6.47397 38.6463 5.72436 38.3287 5.17208 37.7669C4.61979 37.2052 4.30974 36.4449 4.30975 35.6525V28.3649C4.31364 27.575 4.6254 26.8186 5.17727 26.2601C5.72914 25.7016 6.47653 25.386 7.25698 25.3821C7.54583 25.3821 7.82294 25.2664 8.02775 25.0602C8.23256 24.8541 8.3484 24.5743 8.34997 24.2819V18.7241C8.34997 18.4307 8.23481 18.1493 8.02984 17.9419C7.82486 17.7344 7.54686 17.6179 7.25698 17.6179C6.47397 17.6139 5.72436 17.2963 5.17208 16.7346C4.61979 16.1728 4.30974 15.4126 4.30975 14.6201V7.34453C4.30741 6.95146 4.38193 6.5618 4.52903 6.198C4.67613 5.8342 4.89289 5.50346 5.16684 5.22481C5.44079 4.94616 5.76651 4.72513 6.12523 4.57443C6.48395 4.42374 6.86858 4.34636 7.25698 4.34677H14.4577C14.8461 4.34636 15.2307 4.42374 15.5894 4.57443C15.9481 4.72513 16.2739 4.94616 16.5478 5.22481C16.8218 5.50346 17.0385 5.8342 17.1856 6.198C17.3327 6.5618 17.4072 6.95146 17.4049 7.34453C17.4057 7.63819 17.5215 7.91954 17.7269 8.1269C17.9324 8.33426 18.2107 8.45071 18.5008 8.45071H23.9865C24.2764 8.45071 24.5544 8.33417 24.7594 8.12672C24.9644 7.91927 25.0795 7.63791 25.0795 7.34453C25.0772 6.95146 25.1517 6.5618 25.2988 6.198C25.4459 5.8342 25.6627 5.50346 25.9366 5.22481C26.2106 4.94616 26.5363 4.72513 26.895 4.57443C27.2537 4.42374 27.6383 4.34636 28.0267 4.34677H35.2156C36.0012 4.34677 36.7546 4.6626 37.3101 5.22479C37.8656 5.78698 38.1776 6.54948 38.1776 7.34453V14.6321Z" fill="#DFE0EA"/>
</svg>
